<?xml version="1.0" encoding="UTF-8"?>
<!DOCTYPE svg PUBLIC "-//W3C//DTD SVG 1.1//EN" "http://www.w3.org/Graphics/SVG/1.1/DTD/svg11.dtd">
<!-- Creator: CorelDRAW X6 -->
<svg xmlns="http://www.w3.org/2000/svg" xml:space="preserve" width="21cm" height="21cm" version="1.1" shape-rendering="geometricPrecision" text-rendering="geometricPrecision" image-rendering="optimizeQuality" fill-rule="evenodd" clip-rule="evenodd"
viewBox="0 0 2100 2100"
 >
 <g id="Ebene_x0020_1">
  <metadata id="CorelCorpID_0Corel-Layer"/>
  <polygon fill="#632F5F" points="0,0 2100,0 2100,2100 0,2100 "/>
  <path fill="white" d="M1853 591c-12,-127 -86,-237 -191,-296 -5,6 -7,3 -7,8 -14,5 -34,-5 -49,-11 -21,-8 -43,-12 -65,-12 -17,0 -34,2 -50,7 -15,5 -50,11 -35,42 10,16 35,31 60,10 10,-10 20,-26 35,-10 5,5 5,11 5,16 -5,15 -20,21 -35,21 -20,5 -40,0 -60,5 -20,5 -50,10 -50,37 0,31 -10,36 -35,41 -20,0 -29,11 -20,32 5,16 20,16 30,10 40,-21 75,-73 120,-10l10 -5c10,-42 20,-16 30,0l15 15c59,-57 44,27 64,42 -39,-10 -84,32 -119,5 -60,-47 -100,-26 -154,21 -45,37 -55,84 -45,126 15,52 69,58 114,47 15,-5 45,-5 45,5 -10,47 45,79 25,131 -15,42 10,94 45,110 35,16 64,-26 79,-63 5,-5 0,-15 5,-21 40,-52 35,-131 85,-183 15,-16 65,-73 25,-120 95,-26 60,68 80,110 15,-32 25,-63 34,-89 5,-16 9,-21 9,-21l0 0zm-544 -279c15,-16 16,-19 32,-41 -33,11 -74,34 -104,59l9 10 47 0c0,0 5,0 5,-6l6 -5c0,0 5,0 5,-6l5 -5 5 -6c-15,11 -15,6 -10,0 0,6 0,6 0,0 0,6 0,0 0,0l0 0 0 0zm-70 510c0,0 -5,-5 0,0 -5,-5 -5,-5 0,0l0 -15 -5 -5c-5,0 -5,-5 -11,-5 -5,0 -10,-5 -15,-5l-10 0c0,0 -5,0 -5,-5 -37,-20 -52,-55 -62,-95 0,-10 -5,-20 -5,-30 -5,-5 -5,-10 -11,-15 -10,-10 -5,-29 6,-49l0 -10c0,-5 0,-5 5,-10 0,-5 0,-5 5,-10 10,-20 31,-35 41,-50 5,-5 5,-5 5,-10l0 -5c5,-5 5,-15 10,-20 0,-5 6,-15 6,-20 0,-10 0,-15 -6,-25 -5,-15 -8,-28 -18,-38 -46,65 -74,138 -74,222 0,115 49,217 130,288 0,0 3,1 3,-4l0 -5c0,-5 6,-5 6,-10 5,-20 5,-49 5,-69l0 0z"/>
  <path fill="#FEFEFE" d="M1475 254c-204,0 -371,166 -371,371 0,204 167,371 371,371 205,0 371,-167 371,-371 0,-205 -166,-371 -371,-371zm0 -57c-236,0 -428,192 -428,428 0,236 192,428 428,428 236,0 428,-192 428,-428 0,-236 -192,-428 -428,-428z"/>
  <path fill="#FEFEFE" fill-rule="nonzero" d="M443 1723l0 83 -227 0 0 -83 227 0zm226 -82c11,0 21,4 29,12 8,8 12,18 12,29l0 165c0,11 -4,21 -12,29 -8,8 -18,12 -29,12l-165 0c-11,0 -20,-4 -29,-12 -8,-8 -12,-18 -12,-29l0 -165c0,-11 4,-21 12,-29 9,-8 18,-12 29,-12l165 0zm103 -247l0 82 -556 0 0 -82 556 0zm-412 -330l0 82 -144 0 0 -82 144 0zm845 659l0 83 -474 0 0 -83 474 0zm-618 -742c11,0 21,5 29,13 8,8 12,18 12,29l0 165c0,11 -4,20 -12,29 -8,8 -18,12 -29,12l-165 0c-11,0 -21,-4 -29,-12 -8,-9 -12,-18 -12,-29l0 -165c0,-11 4,-21 12,-29 8,-8 18,-13 29,-13l165 0zm412 330c11,0 21,4 29,12 8,9 12,18 12,29l0 165c0,11 -4,21 -12,29 -8,8 -18,12 -29,12l-165 0c-11,0 -21,-4 -29,-12 -8,-8 -12,-18 -12,-29l0 -165c0,-11 4,-20 12,-29 8,-8 18,-12 29,-12l165 0zm206 83l0 82 -144 0 0 -82 144 0zm0 -330l0 82 -556 0 0 -82 556 0z"/>
 </g>
</svg>
