<?xml version="1.0" encoding="UTF-8"?>
<!DOCTYPE svg PUBLIC "-//W3C//DTD SVG 1.1//EN" "http://www.w3.org/Graphics/SVG/1.1/DTD/svg11.dtd">
<!-- Creator: CorelDRAW X6 -->
<svg xmlns="http://www.w3.org/2000/svg" xml:space="preserve" width="21cm" height="21cm" version="1.1" shape-rendering="geometricPrecision" text-rendering="geometricPrecision" image-rendering="optimizeQuality" fill-rule="evenodd" clip-rule="evenodd"
viewBox="0 0 2100 2100"
 >
 <g id="Ebene_x0020_1">
  <metadata id="CorelCorpID_0Corel-Layer"/>
  <path fill="white" d="M1840 980c-25,-267 -181,-496 -400,-619 -10,11 -13,5 -13,16 -32,11 -73,-11 -104,-22 -43,-17 -89,-26 -136,-26 -35,0 -70,5 -104,15 -31,11 -104,22 -73,88 21,33 73,65 125,22 21,-22 42,-55 73,-22 10,11 10,22 10,33 -10,32 -41,43 -72,43 -42,11 -84,0 -125,11 -42,11 -105,22 -105,77 0,66 -20,77 -73,88 -41,0 -62,21 -41,65 10,33 41,33 62,22 84,-44 156,-153 250,-22l21 -11c21,-87 42,-32 62,0l32 33c125,-120 93,55 135,88 -83,-22 -177,65 -250,10 -125,-98 -208,-54 -323,44 -93,77 -114,175 -93,263 31,109 145,120 239,98 31,-11 94,-11 94,11 -21,99 94,164 52,274 -31,87 21,197 93,229 73,33 136,-54 167,-131 11,-11 0,-33 11,-44 83,-109 72,-273 176,-383 32,-32 136,-153 52,-251 198,-55 126,142 167,230 31,-66 52,-132 73,-186 10,-33 18,-43 18,-43l0 0zm-1138 -583c33,-35 34,-41 67,-87 -69,24 -155,72 -217,124l19 20 98 0c0,0 11,0 11,-11l11 -12c0,0 11,0 11,-11l11 -12 11 -11c-33,23 -33,11 -22,0 0,11 0,11 0,0 0,11 0,0 0,0l0 0 0 0zm-146 1065c0,0 -11,-11 0,0 -11,-11 -11,-11 0,0l0 -32 -11 -10c-11,0 -11,-10 -21,-10 -11,0 -22,-11 -33,-11l-21 0c0,0 -11,0 -11,-10 -75,-42 -107,-115 -129,-198 0,-21 -11,-42 -11,-62 -10,-11 -10,-21 -21,-32 -22,-21 -11,-62 11,-104l0 -21c0,-10 0,-10 10,-20 0,-11 0,-11 11,-21 22,-42 65,-73 86,-104 11,-11 11,-11 11,-21l0 -10c11,-11 11,-32 21,-42 0,-10 11,-31 11,-42 0,-20 0,-31 -11,-51 -10,-32 -17,-59 -38,-80 -97,136 -155,287 -155,464 0,240 102,452 272,601 0,0 7,3 7,-7l0 -11c0,-10 11,-10 11,-21 11,-42 11,-104 11,-145l0 0z"/>
  <path fill="#FEFEFE" d="M1050 263c-434,0 -787,353 -787,787 0,434 353,787 787,787 434,0 787,-353 787,-787 0,-434 -353,-787 -787,-787zm0 -66c-470,0 -853,383 -853,853 0,470 383,853 853,853 470,0 853,-383 853,-853 0,-470 -383,-853 -853,-853z"/>
 </g>
</svg>
