<?xml version="1.0" encoding="UTF-8"?>
<!DOCTYPE svg PUBLIC "-//W3C//DTD SVG 1.1//EN" "http://www.w3.org/Graphics/SVG/1.1/DTD/svg11.dtd">
<!-- Creator: CorelDRAW X6 -->
<svg xmlns="http://www.w3.org/2000/svg" xml:space="preserve" width="21cm" height="21cm" version="1.1" shape-rendering="geometricPrecision" text-rendering="geometricPrecision" image-rendering="optimizeQuality" fill-rule="evenodd" clip-rule="evenodd"
viewBox="0 0 2100 2100"
 >
 <g id="Ebene_x0020_1">
  <metadata id="CorelCorpID_0Corel-Layer"/>
  <polygon fill="#632F5F" points="0,0 2100,0 2100,2100 0,2100 "/>
  <path fill="white" d="M1853 591c-12,-127 -86,-237 -191,-296 -5,6 -7,3 -7,8 -14,5 -34,-5 -49,-11 -21,-8 -43,-12 -65,-12 -17,0 -34,2 -50,7 -15,5 -50,11 -35,42 10,16 35,31 60,10 10,-10 20,-26 35,-10 5,5 5,11 5,16 -5,15 -20,21 -35,21 -20,5 -40,0 -60,5 -20,5 -50,10 -50,37 0,31 -10,36 -35,41 -20,0 -29,11 -20,32 5,16 20,16 30,10 40,-21 75,-73 120,-10l10 -5c10,-42 20,-16 30,0l15 15c59,-57 44,27 64,42 -39,-10 -84,32 -119,5 -60,-47 -100,-26 -154,21 -45,37 -55,84 -45,126 15,52 69,58 114,47 15,-5 45,-5 45,5 -10,47 45,79 25,131 -15,42 10,94 45,110 35,16 64,-26 79,-63 5,-5 0,-15 5,-21 40,-52 35,-131 85,-183 15,-16 65,-73 25,-120 95,-26 60,68 80,110 15,-32 25,-63 34,-89 5,-16 9,-21 9,-21l0 0zm-544 -279c15,-16 16,-19 32,-41 -33,11 -74,34 -104,59l9 10 47 0c0,0 5,0 5,-6l6 -5c0,0 5,0 5,-6l5 -5 5 -6c-15,11 -15,6 -10,0 0,6 0,6 0,0 0,6 0,0 0,0l0 0 0 0zm-70 510c0,0 -5,-5 0,0 -5,-5 -5,-5 0,0l0 -15 -5 -5c-5,0 -5,-5 -11,-5 -5,0 -10,-5 -15,-5l-10 0c0,0 -5,0 -5,-5 -37,-20 -52,-55 -62,-95 0,-10 -5,-20 -5,-30 -5,-5 -5,-10 -11,-15 -10,-10 -5,-29 6,-49l0 -10c0,-5 0,-5 5,-10 0,-5 0,-5 5,-10 10,-20 31,-35 41,-50 5,-5 5,-5 5,-10l0 -5c5,-5 5,-15 10,-20 0,-5 6,-15 6,-20 0,-10 0,-15 -6,-25 -5,-15 -8,-28 -18,-38 -46,65 -74,138 -74,222 0,115 49,217 130,288 0,0 3,1 3,-4l0 -5c0,-5 6,-5 6,-10 5,-20 5,-49 5,-69l0 0z"/>
  <path fill="#FEFEFE" d="M1475 254c-204,0 -371,166 -371,371 0,204 167,371 371,371 205,0 371,-167 371,-371 0,-205 -166,-371 -371,-371zm0 -57c-236,0 -428,192 -428,428 0,236 192,428 428,428 236,0 428,-192 428,-428 0,-236 -192,-428 -428,-428z"/>
  <path fill="#FEFEFE" fill-rule="nonzero" d="M573 1808c15,16 23,34 23,55 0,20 -8,38 -23,54 -15,15 -33,23 -54,23 -21,0 -39,-8 -54,-23 -15,-16 -23,-34 -23,-54 0,-21 8,-39 23,-55 15,-15 33,-22 54,-22 21,0 39,7 54,22zm539 0c15,16 23,34 23,55 0,20 -8,38 -23,54 -15,15 -34,23 -54,23 -21,0 -39,-8 -54,-23 -16,-16 -23,-34 -23,-54 0,-21 7,-39 23,-55 15,-15 33,-22 54,-22 20,0 39,7 54,22zm100 -599l0 307c0,10 -4,18 -10,26 -7,7 -15,12 -25,13l-627 73c5,24 8,38 8,42 0,7 -5,19 -15,39l553 0c11,0 20,3 27,11 8,8 12,17 12,27 0,11 -4,19 -12,27 -7,8 -16,12 -27,12l-615 0c-11,0 -20,-4 -27,-12 -8,-8 -12,-16 -12,-27 0,-4 2,-11 5,-19 3,-8 6,-15 10,-21 3,-7 7,-15 13,-25 5,-9 8,-15 9,-17l-107 -495 -122 0c-11,0 -19,-4 -27,-11 -8,-8 -12,-17 -12,-27 0,-11 4,-20 12,-27 8,-8 16,-12 27,-12l154 0c6,0 12,2 17,4 5,3 9,6 12,9 3,4 5,9 8,15 2,6 3,12 4,16 1,4 2,10 4,18 1,7 2,12 2,15l722 0c11,0 19,4 27,11 8,8 12,17 12,28z"/>
 </g>
</svg>
